<?xml version="1.0" standalone="no"?>
<!DOCTYPE svg PUBLIC "-//W3C//DTD SVG 1.1//EN" "http://www.w3.org/Graphics/SVG/1.1/DTD/svg11.dtd">
<svg width="54mm" height="86mm" viewBox="0 -43 54 86" xmlns="http://www.w3.org/2000/svg" version="1.1">
<title>OpenSCAD Model</title>
<path d="
M 51.927,42.6532 L 52.7634,42.2271 L 53.427,41.5634 L 53.8532,40.7271 L 54,39.8 L 54,11.9
 L 53.1656,11.7678 L 52.413,11.3843 L 51.8156,10.787 L 51.4321,10.0343 L 51.3,9.2 L 51.3,1.2
 L 54,1.2 L 54,-1.2 L 51.3,-1.2 L 51.3,-9.2 L 51.4321,-10.0343 L 51.8156,-10.787
 L 52.413,-11.3843 L 53.1656,-11.7678 L 54,-11.9 L 54,-39.8 L 53.8532,-40.7271 L 53.427,-41.5634
 L 52.7634,-42.2271 L 51.927,-42.6532 L 51,-42.8 L 3,-42.8 L 2.07294,-42.6532 L 1.23663,-42.2271
 L 0.572937,-41.5634 L 0.14682,-40.7271 L 0,-39.8 L 0,-11.9 L 0.834335,-11.7678 L 1.58701,-11.3843
 L 2.18434,-10.787 L 2.56784,-10.0343 L 2.7,-9.2 L 2.7,-1.2 L 0,-1.2 L 0,1.2
 L 2.7,1.2 L 2.7,9.2 L 2.56784,10.0343 L 2.18434,10.787 L 1.58701,11.3843 L 0.834335,11.7678
 L 0,11.9 L 0,39.8 L 0.14682,40.7271 L 0.572937,41.5634 L 1.23663,42.2271 L 2.07294,42.6532
 L 3,42.8 L 51,42.8 z
" stroke="black" fill="lightgray" stroke-width="0.5"/>
</svg>
