<?xml version="1.0" encoding="UTF-8" standalone="no"?>
<svg
   xmlns:dc="http://purl.org/dc/elements/1.1/"
   xmlns:cc="http://creativecommons.org/ns#"
   xmlns:rdf="http://www.w3.org/1999/02/22-rdf-syntax-ns#"
   xmlns:svg="http://www.w3.org/2000/svg"
   xmlns="http://www.w3.org/2000/svg"
   xmlns:sodipodi="http://sodipodi.sourceforge.net/DTD/sodipodi-0.dtd"
   xmlns:inkscape="http://www.inkscape.org/namespaces/inkscape"
   width="54mm"
   height="86mm"
   viewBox="0 -43 54 86"
   version="1.1"
   id="svg6"
   sodipodi:docname="card_cut.svg"
   inkscape:version="0.92.4 (5da689c313, 2019-01-14)">
  <metadata
     id="metadata12">
    <rdf:RDF>
      <cc:Work
         rdf:about="">
        <dc:format>image/svg+xml</dc:format>
        <dc:type
           rdf:resource="http://purl.org/dc/dcmitype/StillImage" />
      </cc:Work>
    </rdf:RDF>
  </metadata>
  <defs
     id="defs10" />
  <sodipodi:namedview
     pagecolor="#ffffff"
     bordercolor="#666666"
     borderopacity="1"
     objecttolerance="10"
     gridtolerance="10"
     guidetolerance="10"
     inkscape:pageopacity="0"
     inkscape:pageshadow="2"
     inkscape:window-width="2560"
     inkscape:window-height="1376"
     id="namedview8"
     showgrid="false"
     inkscape:zoom="5.8085271"
     inkscape:cx="74.953258"
     inkscape:cy="153.15816"
     inkscape:window-x="0"
     inkscape:window-y="27"
     inkscape:window-maximized="1"
     inkscape:current-layer="svg6" />
  <title
     id="title2">OpenSCAD Model</title>
  <path
     d="m 0,-11.9 0.834335,0.1322 0.752675,0.3835 0.59733,0.5973 0.3835,0.7527 L 2.7,-9.2 v 8 H 0 M 0,1.2 H 2.7 L 2.7,3.1892896 2.7,9.2 2.56784,10.0343 2.18434,10.787 1.58701,11.3843 0.834335,11.7678 0,11.9 m 54,0 L 53.1656,11.7678 52.413,11.3843 51.8156,10.787 51.4321,10.0343 51.3,9.2 v -8 H 54 m 0,-2.4 h -2.7 v -8 l 0.1321,-0.8343 0.3835,-0.7527 0.5974,-0.5973 0.7526,-0.3835 L 54,-11.9"
     id="path4"
     inkscape:connector-curvature="0"
     style="fill:#d3d3d3;stroke:#0000a0;stroke-width:0.02645833;stroke-opacity:1;stroke-miterlimit:4;stroke-dasharray:none"
     sodipodi:nodetypes="ccccccccccccccccccccccccccccccccc" />
  <path
     style="fill:none;stroke:#000000;stroke-width:0.02645833;stroke-linecap:butt;stroke-linejoin:miter;stroke-opacity:1;stroke-miterlimit:4;stroke-dasharray:none"
     d="M 0.00805233,0.00861988 H 54.01502"
     id="path824"
     inkscape:connector-curvature="0" />
</svg>
