<?xml version="1.0" encoding="UTF-8" standalone="no"?>
<svg
   xmlns:dc="http://purl.org/dc/elements/1.1/"
   xmlns:cc="http://creativecommons.org/ns#"
   xmlns:rdf="http://www.w3.org/1999/02/22-rdf-syntax-ns#"
   xmlns:svg="http://www.w3.org/2000/svg"
   xmlns="http://www.w3.org/2000/svg"
   id="svg6"
   width="200px"
   version="1.1"
   height="350px">
  <metadata
     id="metadata10">
    <rdf:RDF>
      <cc:Work
         rdf:about="">
        <dc:format>image/svg+xml</dc:format>
        <dc:type
           rdf:resource="http://purl.org/dc/dcmitype/StillImage" />
      </cc:Work>
    </rdf:RDF>
  </metadata>
  <defs
     id="defs2" />
  <g
     id="text4"
     style="font-size:340px;font-family:Bebas;fill:none;stroke:#000000;stroke-width:1"
     aria-label="2">
    <path
       id="path12"
       style="font-size:340px;font-family:Bebas;fill:none;stroke:#000000;stroke-width:1"
       d="m 53.04,216 h 71.4 v 34 H 10.2 v -31.28 l 52.7,-83.98 q 14.62,-23.12 20.06,-37.4 5.44,-14.62 5.44,-28.56 0,-12.58 -5.78,-19.04 -5.44,-6.8 -15.98,-6.8 -10.54,0 -16.32,6.8 -5.44,6.46 -5.44,19.04 V 82.72 H 10.2 V 71.5 q 0,-29.24 14.96,-45.9 15.3,-16.66 41.82,-16.66 26.86,0 42.16,15.64 15.3,15.64 15.3,43.18 0,19.38 -7.14,38.08 -6.8,18.36 -24.82,47.26 z" />
  </g>
</svg>
