<?xml version="1.0" encoding="UTF-8" standalone="no"?>
<svg
   xmlns:dc="http://purl.org/dc/elements/1.1/"
   xmlns:cc="http://creativecommons.org/ns#"
   xmlns:rdf="http://www.w3.org/1999/02/22-rdf-syntax-ns#"
   xmlns:svg="http://www.w3.org/2000/svg"
   xmlns="http://www.w3.org/2000/svg"
   id="svg6"
   width="200px"
   version="1.1"
   height="350px">
  <metadata
     id="metadata10">
    <rdf:RDF>
      <cc:Work
         rdf:about="">
        <dc:format>image/svg+xml</dc:format>
        <dc:type
           rdf:resource="http://purl.org/dc/dcmitype/StillImage" />
      </cc:Work>
    </rdf:RDF>
  </metadata>
  <defs
     id="defs2" />
  <g
     id="text4"
     style="font-size:340px;font-family:Bebas;fill:none;stroke:#000000;stroke-width:1"
     aria-label="3">
    <path
       id="path12"
       style="font-size:340px;font-family:Bebas;fill:none;stroke:#000000;stroke-width:1"
       d="m 96.56,125.9 q 27.88,12.92 27.88,46.92 v 22.1 q 0,27.2 -15.3,42.84 -15.3,15.64 -42.16,15.64 -26.86,0 -42.16,-15.64 -15.3,-15.64 -15.3,-42.84 v -7.14 l 34.68,-3.4 v 7.82 q 0,27.2 22.1,27.2 10.54,0 16.32,-6.12 5.78,-6.12 5.78,-17.68 v -24.82 q 0,-14.28 -6.46,-20.74 -6.46,-6.46 -20.74,-6.46 H 46.92 v -34 h 11.9 q 14.28,0 20.74,-6.46 6.46,-6.46 6.46,-20.74 V 64.02 q 0,-10.54 -5.44,-15.98 -5.1,-5.44 -14.96,-5.44 -20.4,0 -20.4,24.82 v 5.44 H 10.54 V 64.7 Q 10.54,38.86 25.16,23.9 40.12,8.6 66.3,8.6 q 26.18,0 40.8,15.3 14.96,14.96 14.96,40.8 v 15.64 q 0,15.98 -6.46,27.54 -6.46,11.56 -19.04,18.02 z" />
  </g>
</svg>
