<?xml version="1.0" encoding="UTF-8" standalone="no"?>
<svg
   xmlns:dc="http://purl.org/dc/elements/1.1/"
   xmlns:cc="http://creativecommons.org/ns#"
   xmlns:rdf="http://www.w3.org/1999/02/22-rdf-syntax-ns#"
   xmlns:svg="http://www.w3.org/2000/svg"
   xmlns="http://www.w3.org/2000/svg"
   id="svg6"
   width="200px"
   version="1.1"
   height="350px">
  <metadata
     id="metadata10">
    <rdf:RDF>
      <cc:Work
         rdf:about="">
        <dc:format>image/svg+xml</dc:format>
        <dc:type
           rdf:resource="http://purl.org/dc/dcmitype/StillImage" />
      </cc:Work>
    </rdf:RDF>
  </metadata>
  <defs
     id="defs2" />
  <g
     id="text4"
     style="font-size:340px;font-family:Bebas;fill:none;stroke:#000000;stroke-width:1"
     aria-label="5">
    <path
       id="path12"
       style="font-size:340px;font-family:Bebas;fill:none;stroke:#000000;stroke-width:1"
       d="m 71.74,253.4 q -26.52,0 -41.82,-15.3 -14.96,-15.64 -14.96,-42.5 v -7.14 l 34.68,-3.4 v 7.82 q 0,26.52 21.42,26.52 10.2,0 15.64,-5.78 5.78,-5.78 5.78,-17.34 V 141.2 q 0,-10.2 -5.1,-15.3 -5.1,-5.44 -13.94,-5.44 -9.86,0 -16.32,6.46 -6.12,6.12 -6.12,17 V 148 H 16.32 V 12 H 119.34 V 46 H 51 v 59.16 q 4.08,-7.14 13.26,-12.24 9.52,-5.1 21.08,-5.1 20.06,0 31.62,13.26 11.56,12.92 11.56,34.68 v 59.84 q 0,26.86 -15.3,42.5 -14.96,15.3 -41.48,15.3 z" />
  </g>
</svg>
