<?xml version="1.0" encoding="UTF-8" standalone="no"?>
<svg
   xmlns:dc="http://purl.org/dc/elements/1.1/"
   xmlns:cc="http://creativecommons.org/ns#"
   xmlns:rdf="http://www.w3.org/1999/02/22-rdf-syntax-ns#"
   xmlns:svg="http://www.w3.org/2000/svg"
   xmlns="http://www.w3.org/2000/svg"
   id="svg6"
   width="200px"
   version="1.1"
   height="350px">
  <metadata
     id="metadata10">
    <rdf:RDF>
      <cc:Work
         rdf:about="">
        <dc:format>image/svg+xml</dc:format>
        <dc:type
           rdf:resource="http://purl.org/dc/dcmitype/StillImage" />
      </cc:Work>
    </rdf:RDF>
  </metadata>
  <defs
     id="defs2" />
  <g
     id="text4"
     style="font-size:340px;font-family:Bebas;fill:none;stroke:#000000;stroke-width:1"
     aria-label="6">
    <path
       id="path12"
       style="font-size:340px;font-family:Bebas;fill:none;stroke:#000000;stroke-width:1"
       d="M 73.78,253.4 Q 47.94,253.4 31.96,237.76 15.98,221.78 15.98,196.28 V 65.72 q 0,-25.5 15.64,-41.14 Q 47.26,8.6 72.76,8.6 q 25.5,0 40.8,15.98 15.64,15.64 15.64,41.14 v 7.82 H 94.52 v -9.52 q 0,-9.86 -5.78,-15.64 -5.78,-5.78 -15.64,-5.78 -9.52,0 -15.3,5.78 -5.78,5.78 -5.78,15.64 v 54.4 q 4.42,-7.14 13.26,-11.9 9.18,-5.1 21.76,-5.1 20.4,0 31.96,13.26 11.9,12.92 11.9,35.36 v 46.24 q 0,25.5 -15.98,41.48 -15.64,15.64 -41.14,15.64 z m 0,-34 q 9.52,0 15.3,-5.78 5.78,-5.78 5.78,-15.64 v -42.5 q 0,-10.88 -5.1,-15.98 -5.1,-5.44 -14.62,-5.44 -10.88,0 -17,6.46 -6.12,6.12 -6.12,17.34 v 40.12 q 0,9.86 5.78,15.64 5.78,5.78 15.98,5.78 z" />
  </g>
</svg>
