<?xml version="1.0" encoding="UTF-8" standalone="no"?>
<svg
   xmlns:dc="http://purl.org/dc/elements/1.1/"
   xmlns:cc="http://creativecommons.org/ns#"
   xmlns:rdf="http://www.w3.org/1999/02/22-rdf-syntax-ns#"
   xmlns:svg="http://www.w3.org/2000/svg"
   xmlns="http://www.w3.org/2000/svg"
   id="svg6"
   width="200px"
   version="1.1"
   height="350px">
  <metadata
     id="metadata10">
    <rdf:RDF>
      <cc:Work
         rdf:about="">
        <dc:format>image/svg+xml</dc:format>
        <dc:type
           rdf:resource="http://purl.org/dc/dcmitype/StillImage" />
      </cc:Work>
    </rdf:RDF>
  </metadata>
  <defs
     id="defs2" />
  <g
     id="text4"
     style="font-size:340px;font-family:Bebas;fill:none;stroke:#000000;stroke-width:1"
     aria-label="8">
    <path
       id="path12"
       style="font-size:340px;font-family:Bebas;fill:none;stroke:#000000;stroke-width:1"
       d="m 106.08,126.24 q 12.92,6.12 19.72,18.02 6.8,11.9 6.8,28.56 v 22.1 q 0,27.2 -15.64,42.84 -15.64,15.64 -44.2,15.64 -28.56,0 -44.2,-15.64 -15.64,-15.64 -15.64,-42.84 v -22.1 q 0,-16.66 6.8,-28.56 6.8,-11.9 19.72,-18.02 Q 27.88,119.78 21.42,108.22 15.3,96.32 15.3,80.34 V 64.7 Q 15.3,38.52 30.26,23.56 45.56,8.6 72.76,8.6 q 27.2,0 42.16,14.96 15.3,14.96 15.3,41.14 v 15.64 q 0,15.98 -6.46,27.88 -6.12,11.56 -17.68,18.02 z M 51.34,82.38 q 0,27.2 21.42,27.2 21.42,0 21.42,-27.2 V 64.02 q 0,-10.54 -5.44,-15.98 -5.44,-5.44 -15.98,-5.44 -10.54,0 -15.98,5.44 -5.44,5.44 -5.44,15.98 z m 45.22,88.4 q 0,-13.94 -6.12,-20.4 -5.78,-6.8 -17.68,-6.8 -11.9,0 -18.02,6.8 -5.78,6.46 -5.78,20.4 v 24.82 q 0,23.8 23.8,23.8 23.8,0 23.8,-23.8 z" />
  </g>
</svg>
