<?xml version="1.0" encoding="UTF-8" standalone="no"?>
<svg
   xmlns:dc="http://purl.org/dc/elements/1.1/"
   xmlns:cc="http://creativecommons.org/ns#"
   xmlns:rdf="http://www.w3.org/1999/02/22-rdf-syntax-ns#"
   xmlns:svg="http://www.w3.org/2000/svg"
   xmlns="http://www.w3.org/2000/svg"
   id="svg6"
   width="200px"
   version="1.1"
   height="350px">
  <metadata
     id="metadata10">
    <rdf:RDF>
      <cc:Work
         rdf:about="">
        <dc:format>image/svg+xml</dc:format>
        <dc:type
           rdf:resource="http://purl.org/dc/dcmitype/StillImage" />
      </cc:Work>
    </rdf:RDF>
  </metadata>
  <defs
     id="defs2" />
  <g
     id="text4"
     style="font-size:340px;font-family:Bebas;fill:none;stroke:#000000;stroke-width:1"
     aria-label="B">
    <path
       id="path12"
       style="font-size:340px;font-family:Bebas;fill:none;stroke:#000000;stroke-width:1"
       d="m 109.14,126.92 q 13.26,6.12 20.06,18.02 7.14,11.9 7.14,28.9 v 19.38 q 0,25.84 -15.3,41.48 Q 105.74,250 79.9,250 H 19.72 V 12 h 57.12 q 25.84,0 41.14,15.64 15.3,15.3 15.3,41.14 v 12.58 q 0,31.96 -24.14,45.56 z M 55.76,46 v 64.6 h 15.98 q 12.92,0 19.04,-6.12 6.46,-6.46 6.46,-19.38 v -17 Q 97.24,57.56 91.46,51.78 85.68,46 75.14,46 Z m 44.54,124.1 q 0,-12.92 -6.46,-19.04 Q 87.72,144.6 74.8,144.6 H 55.76 V 216 H 78.2 q 10.54,0 16.32,-5.78 5.78,-5.78 5.78,-16.32 z" />
  </g>
</svg>
