<?xml version="1.0" encoding="UTF-8" standalone="no"?>
<svg
   xmlns:dc="http://purl.org/dc/elements/1.1/"
   xmlns:cc="http://creativecommons.org/ns#"
   xmlns:rdf="http://www.w3.org/1999/02/22-rdf-syntax-ns#"
   xmlns:svg="http://www.w3.org/2000/svg"
   xmlns="http://www.w3.org/2000/svg"
   id="svg6"
   width="200px"
   version="1.1"
   height="350px">
  <metadata
     id="metadata10">
    <rdf:RDF>
      <cc:Work
         rdf:about="">
        <dc:format>image/svg+xml</dc:format>
        <dc:type
           rdf:resource="http://purl.org/dc/dcmitype/StillImage" />
      </cc:Work>
    </rdf:RDF>
  </metadata>
  <defs
     id="defs2" />
  <g
     id="text4"
     style="font-size:340px;font-family:Bebas;fill:none;stroke:#000000;stroke-width:1"
     aria-label="C">
    <path
       id="path12"
       style="font-size:340px;font-family:Bebas;fill:none;stroke:#000000;stroke-width:1"
       d="m 73.1,253.4 q -25.16,0 -40.8,-15.64 -15.64,-15.64 -15.64,-40.8 V 65.04 Q 16.66,39.88 32.3,24.24 47.94,8.6 73.1,8.6 q 25.16,0 40.8,15.64 15.64,15.64 15.64,40.8 V 92.92 H 94.18 V 65.04 q 0,-10.2 -5.78,-16.32 -5.78,-6.12 -14.96,-6.12 -9.18,0 -14.96,6.12 -5.78,6.12 -5.78,16.32 v 131.92 q 0,10.2 5.78,16.32 5.78,6.12 14.96,6.12 9.18,0 14.96,-6.12 5.78,-6.12 5.78,-16.32 v -34 h 35.36 v 34 q 0,25.16 -15.64,40.8 -15.64,15.64 -40.8,15.64 z" />
  </g>
</svg>
