<?xml version="1.0" encoding="UTF-8" standalone="no"?>
<svg
   xmlns:dc="http://purl.org/dc/elements/1.1/"
   xmlns:cc="http://creativecommons.org/ns#"
   xmlns:rdf="http://www.w3.org/1999/02/22-rdf-syntax-ns#"
   xmlns:svg="http://www.w3.org/2000/svg"
   xmlns="http://www.w3.org/2000/svg"
   id="svg6"
   width="200px"
   version="1.1"
   height="350px">
  <metadata
     id="metadata10">
    <rdf:RDF>
      <cc:Work
         rdf:about="">
        <dc:format>image/svg+xml</dc:format>
        <dc:type
           rdf:resource="http://purl.org/dc/dcmitype/StillImage" />
      </cc:Work>
    </rdf:RDF>
  </metadata>
  <defs
     id="defs2" />
  <g
     id="text4"
     style="font-size:340px;font-family:Bebas;fill:none;stroke:#000000;stroke-width:1"
     aria-label="G">
    <path
       id="path12"
       style="font-size:340px;font-family:Bebas;fill:none;stroke:#000000;stroke-width:1"
       d="M 96.22,86.12 V 66.06 q 0,-11.22 -5.78,-17.34 -5.78,-6.12 -15.98,-6.12 -10.2,0 -15.98,6.12 -5.78,6.12 -5.78,17.34 v 129.88 q 0,11.22 5.78,17.34 5.78,6.12 15.98,6.12 10.2,0 15.98,-6.12 5.78,-6.12 5.78,-17.34 V 153.78 H 74.46 v -34 h 57.8 v 76.16 q 0,25.84 -15.98,41.82 Q 100.3,253.4 74.46,253.4 48.62,253.4 32.64,237.76 16.66,221.78 16.66,195.94 V 66.06 Q 16.66,40.22 32.64,24.58 48.62,8.6 74.46,8.6 q 25.84,0 41.82,15.98 15.98,15.64 15.98,41.48 v 20.06 z" />
  </g>
</svg>
