<?xml version="1.0" encoding="UTF-8" standalone="no"?>
<svg
   xmlns:dc="http://purl.org/dc/elements/1.1/"
   xmlns:cc="http://creativecommons.org/ns#"
   xmlns:rdf="http://www.w3.org/1999/02/22-rdf-syntax-ns#"
   xmlns:svg="http://www.w3.org/2000/svg"
   xmlns="http://www.w3.org/2000/svg"
   id="svg6"
   width="200px"
   version="1.1"
   height="350px">
  <metadata
     id="metadata10">
    <rdf:RDF>
      <cc:Work
         rdf:about="">
        <dc:format>image/svg+xml</dc:format>
        <dc:type
           rdf:resource="http://purl.org/dc/dcmitype/StillImage" />
      </cc:Work>
    </rdf:RDF>
  </metadata>
  <defs
     id="defs2" />
  <g
     id="text4"
     style="font-size:340px;font-family:Bebas;fill:none;stroke:#000000;stroke-width:1"
     aria-label="S">
    <path
       id="path12"
       style="font-size:340px;font-family:Bebas;fill:none;stroke:#000000;stroke-width:1"
       d="m 69.7,253.4 q -17,0 -30.26,-7.48 -13.26,-7.48 -20.74,-20.74 -7.14,-13.26 -7.14,-30.26 v -8.5 l 34.68,-3.74 v 8.84 q 0,12.92 6.12,20.4 6.12,7.48 17,7.48 10.54,0 16.66,-6.12 6.46,-6.12 6.46,-16.66 0,-11.56 -6.8,-22.1 Q 79.22,163.98 59.5,145.28 32.98,120.12 23.12,103.46 13.6,86.8 13.6,67.08 13.6,40.22 28.22,24.58 42.84,8.6 68.34,8.6 q 25.5,0 40.12,15.98 14.62,15.98 14.62,42.84 v 6.12 L 88.4,77.28 v -6.8 q 0,-13.6 -5.1,-20.74 -5.1,-7.14 -14.62,-7.14 -9.52,0 -14.62,5.78 -5.1,5.78 -5.1,17 0,11.22 6.8,21.76 6.8,10.2 26.18,29.58 26.52,26.52 36.04,42.84 9.86,15.98 9.86,35.36 0,17 -7.48,30.26 -7.14,13.26 -20.4,20.74 -13.26,7.48 -30.26,7.48 z" />
  </g>
</svg>
